<svg width="43" height="47" viewBox="0 0 43 47" fill="none" xmlns="http://www.w3.org/2000/svg">
<g clip-path="url(#clip0_4_140)">
<path d="M40.86 20.7H1.48996C0.129964 20.7 -0.520036 19.02 0.499964 18.11L20.18 0.379998C20.75 -0.130002 21.6 -0.130002 22.17 0.379998L41.85 18.11C42.86 19.02 42.22 20.7 40.86 20.7Z" fill="white"/>
<path d="M4.44996 22.87H37.9C38.72 22.87 39.39 23.54 39.39 24.36V45.26C39.39 46.08 38.73 46.75 37.9 46.75H29.87C29.05 46.75 28.38 46.09 28.38 45.26V37.56C28.38 36.74 27.71 36.07 26.89 36.07H15.45C14.63 36.07 13.96 36.74 13.96 37.56V45.26C13.96 46.08 13.3 46.75 12.47 46.75H4.44996C3.62996 46.75 2.95996 46.09 2.95996 45.26V24.35C2.95996 23.53 3.61996 22.86 4.44996 22.86" fill="white"/>
</g>
<defs>
<clipPath id="clip0_4_140">
<rect width="42.35" height="46.74" fill="white"/>
</clipPath>
</defs>
</svg>
