<svg width="337" height="307" viewBox="0 0 337 307" fill="none" xmlns="http://www.w3.org/2000/svg">
<path d="M334.89 155.01C334.89 155.01 334.89 155.06 334.88 155.08C327.31 202.83 299.49 248.05 261.37 277.56C218.42 310.8 156.46 310.91 105.91 298.94C85.07 294.01 64.65 287.54 46.19 276.46C32.06 267.98 17.37 256.41 9.96002 241.34C1.84002 224.83 -0.25003 205.98 0.21997 187.79C1.49997 139 8.73 84.8 37.94 44.09C57.2 17.24 85.3 1.76998 118.38 0.309981C154.82 -1.29002 191.47 8.68995 227.07 15.22C244.82 18.48 262.63 21.74 279.87 27.16C295.39 32.04 310.8 38.84 320.46 52.6C330.04 66.26 332.45 83.74 334.07 99.94C335.9 118.29 337.79 136.65 334.89 155.01Z" fill="white"/>
</svg>
