<svg width="268" height="800" viewBox="0 0 268 800" fill="none" xmlns="http://www.w3.org/2000/svg">
<path d="M268 0H215V291.825L158.5 385L87.5 428.5L48 484.5L26 553.5L32 642.5L30.5 800H268V0Z" fill="#177843"/>
<path d="M31.92 800H0C1.23026 793.561 2.38404 787.755 3.34844 782.902C4.98054 774.689 6.07024 769.205 6.07024 768C6.07024 765.652 6.07024 764.759 6.19013 763.882C6.37658 762.519 6.85298 761.195 8.07024 754.5C11.2766 743.507 11.126 710.694 11.0781 700.268C11.0738 699.313 11.0702 698.545 11.0702 698C11.0702 692.8 7.7369 656.167 6.07024 638.5C4.7369 626 2.07024 595.8 2.07024 575C2.07024 549 5.07024 527.5 21.0702 497.5C34.5882 472.154 63.0961 443.239 73.1232 433.068C74.9643 431.201 76.1824 429.965 76.5702 429.5C79.0702 426.5 124.07 386.5 133.57 378.5C143.07 370.5 174.07 339.5 184.57 317C195.07 294.5 199.57 271 201.57 252C203.57 233 203.57 203.5 203.07 195C202.67 188.2 198.904 145.833 197.07 125.5C196.237 115.833 194.57 93.1 194.57 79.5C194.57 64.1801 197.819 49.2662 198.827 44.6384C198.937 44.1309 199.021 43.7471 199.07 43.5C199.47 41.5 210.237 13.6667 215.57 0H267.79V0.283543C265.432 2.69773 259.828 9.05517 254.07 17.5C245.57 27.5 228.07 67 226.57 72C226.323 72.8229 225.9 73.9708 225.359 75.4393C222.613 82.8936 216.823 98.6082 215.57 122C214.286 145.97 218.499 162.978 220.365 170.514C220.679 171.781 220.926 172.78 221.07 173.5C221.333 174.816 222.081 176.997 223.114 180.008C226.004 188.438 231.123 203.368 234.07 224C238.07 252 237.07 264 235.07 276.5C233.07 289 229.07 303.5 217.57 330C206.07 356.5 188.57 372 166.07 389.5C156.927 396.611 148.527 401.163 139.897 405.84C127.29 412.671 114.192 419.769 97.5703 435.5C72.5566 459.174 61.11 486.439 57.8835 494.124C57.4983 495.042 57.2302 495.68 57.0703 496C55.5703 499 47.5703 523 45.0703 542C42.8523 558.856 45.7504 576.106 47.1309 584.323C47.3064 585.368 47.4574 586.267 47.5703 587C48.0073 589.84 50.4494 599.174 53.2693 609.951C56.9024 623.836 61.1628 640.118 62.5703 648C65.0703 662 66.0703 669.5 65.5703 692.5C65.1321 712.655 57.7829 731.274 54.6255 739.273C54.1798 740.402 53.8177 741.32 53.5703 742C51.9703 746.4 43.9036 761.167 40.0703 768C37.7077 775.088 34.4752 786.728 31.92 800Z" fill="#6B33A0"/>
</svg>
