<svg width="256" height="170" viewBox="0 0 256 170" fill="none" xmlns="http://www.w3.org/2000/svg">
<path d="M11.5204 4.06V28.55C11.5204 28.79 11.4304 29.01 11.2404 29.19C11.0604 29.37 10.8404 29.46 10.6004 29.46C10.3604 29.46 10.1404 29.37 9.96039 29.19C9.78039 29.01 9.69037 28.8 9.69037 28.55V1.5L9.65039 1C9.65039 0.88 9.6704 0.78998 9.7204 0.72998C9.7704 0.66998 10.0304 0.639984 10.5204 0.639984H10.7504C11.0804 0.639984 11.2804 0.66998 11.3204 0.72998C11.3604 0.78998 11.4304 0.899988 11.5304 1.04999L23.0404 15.99L34.3704 1.19C34.4904 1.01 34.5804 0.869999 34.6504 0.779999C34.7104 0.689999 34.9204 0.639984 35.2904 0.639984C35.7504 0.639984 36.0304 0.729984 36.1404 0.889984C36.2504 1.05998 36.3004 1.25998 36.3004 1.50998V28.56C36.3004 28.8 36.2104 29.02 36.0304 29.2C35.8504 29.38 35.6304 29.47 35.3904 29.47C35.1504 29.47 34.9304 29.38 34.7504 29.2C34.5704 29.02 34.4803 28.81 34.4803 28.56V4.16C32.8003 6.32 31.0704 8.51998 29.2704 10.76C27.4704 13 25.7804 15.21 24.2004 17.41C24.1104 17.53 23.9604 17.67 23.7704 17.82C23.5704 17.97 23.3404 18.05 23.0604 18.05C22.7504 18.05 22.5104 17.98 22.3304 17.84C22.1504 17.7 22.0004 17.56 21.8704 17.41L11.5504 4.06998L11.5204 4.06Z" fill="white"/>
<path d="M50.0304 0.630005C50.2104 0.630005 50.4004 0.669989 50.6004 0.769989C50.8004 0.859989 50.9404 1.00998 51.0304 1.22998L61.5804 28.23C61.6704 28.47 61.6604 28.71 61.5604 28.94C61.4504 29.17 61.2804 29.33 61.0304 29.42C60.7804 29.51 60.5504 29.5 60.3204 29.4C60.0904 29.29 59.9304 29.12 59.8404 28.87L57.0104 21.7H43.3003L40.5104 28.87C40.4204 29.11 40.2604 29.29 40.0304 29.4C39.8004 29.51 39.5604 29.51 39.3204 29.42C39.0804 29.33 38.9004 29.17 38.7904 28.94C38.6804 28.71 38.6804 28.48 38.7704 28.23L49.1904 1.54999C49.2204 1.42999 49.2204 1.31999 49.1904 1.20999C49.1604 1.09999 49.1604 1 49.1904 0.910004C49.2204 0.820004 49.2904 0.749982 49.3904 0.699982C49.5004 0.649982 49.7004 0.630005 50.0104 0.630005M44.0304 19.86H56.3204L50.1504 4.19L44.0304 19.86Z" fill="white"/>
<path d="M66.2104 28.55C66.2104 28.79 66.1203 29.01 65.9303 29.19C65.7503 29.37 65.5304 29.47 65.2904 29.47C65.0504 29.47 64.8304 29.38 64.6504 29.19C64.4704 29.01 64.3703 28.8 64.3703 28.55V1.59998C64.3703 1.47998 64.3504 1.35998 64.3304 1.25998C64.3004 1.14998 64.3004 1.05999 64.3304 0.959991C64.3604 0.869991 64.4303 0.8 64.5603 0.75C64.6803 0.71 64.9004 0.679993 65.2004 0.679993C65.5304 0.679993 65.7904 0.769982 65.9604 0.949982C66.1304 1.12998 66.2104 1.35 66.2104 1.59V28.55Z" fill="white"/>
<path d="M94.6704 28.55C94.6704 28.79 94.5804 29.01 94.3904 29.19C94.2104 29.37 93.9904 29.47 93.7504 29.47C93.5104 29.47 93.3304 29.43 93.2004 29.33C93.0804 29.24 92.9604 29.12 92.8404 28.96L71.3204 4.06V28.55C71.3204 28.79 71.2304 29.01 71.0504 29.19C70.8704 29.37 70.6504 29.47 70.4104 29.47C70.1704 29.47 69.9504 29.38 69.7704 29.19C69.5904 29.01 69.5004 28.8 69.5004 28.55V1.5C69.5004 1.38 69.4904 1.27 69.4504 1.16C69.4204 1.05 69.4104 0.959984 69.4304 0.889984C69.4404 0.809984 69.5104 0.749991 69.6404 0.709991C69.7604 0.659991 69.9904 0.639984 70.3204 0.639984C70.5004 0.639984 70.6604 0.709976 70.8004 0.849976C70.9404 0.989976 71.1104 1.16 71.3204 1.38C71.6004 1.65 71.9704 2.04998 72.4404 2.56998C72.9104 3.08998 73.6104 3.86998 74.5204 4.91998C75.4304 5.96998 76.6804 7.41998 78.2704 9.25998C79.8504 11.1 81.8304 13.42 84.2104 16.2C86.5904 18.99 89.4704 22.36 92.8504 26.32V1.50998C92.8504 1.38998 92.8304 1.27998 92.7804 1.16998C92.7404 1.05998 92.7204 0.969994 92.7404 0.899994C92.7504 0.819994 92.8304 0.760001 92.9704 0.720001C93.1104 0.670001 93.3404 0.649994 93.6804 0.649994C94.1704 0.649994 94.4504 0.739994 94.5504 0.899994C94.6404 1.06999 94.6904 1.26998 94.6904 1.50998V28.56L94.6704 28.55Z" fill="white"/>
<path d="M119.43 1.54999C119.43 1.79999 119.34 2.01 119.15 2.19C118.97 2.37 118.75 2.47 118.51 2.47H109.05V28.56C109.05 28.8 108.96 29.02 108.78 29.2C108.6 29.38 108.38 29.48 108.14 29.48C107.9 29.48 107.68 29.39 107.5 29.2C107.32 29.02 107.22 28.81 107.22 28.56V2.47H97.7604C97.5204 2.47 97.3004 2.38 97.1204 2.19C96.9404 2.01 96.8504 1.79999 96.8504 1.54999C96.8504 1.29999 96.9404 1.09 97.1204 0.910004C97.3004 0.730004 97.5204 0.630005 97.7604 0.630005H118.5C118.74 0.630005 118.96 0.720004 119.14 0.910004C119.32 1.09 119.42 1.30999 119.42 1.54999" fill="white"/>
<path d="M141.32 28.55C141.32 28.79 141.23 29.01 141.05 29.19C140.87 29.37 140.65 29.47 140.41 29.47H122.36C122.12 29.47 121.92 29.38 121.77 29.19C121.62 29.01 121.54 28.8 121.54 28.55V1.87C121.54 1.75 121.52 1.61998 121.47 1.47998C121.43 1.33998 121.4 1.21 121.4 1.09C121.4 0.969996 121.44 0.859989 121.51 0.769989C121.59 0.679989 121.75 0.630005 121.99 0.630005H140.4C140.64 0.630005 140.85 0.720004 141.04 0.910004C141.22 1.09 141.31 1.30999 141.31 1.54999C141.31 1.78999 141.22 2.01 141.04 2.19C140.86 2.37 140.64 2.47 140.4 2.47H123.36V15.49H137.43C137.67 15.49 137.89 15.58 138.07 15.76C138.25 15.94 138.34 16.16 138.34 16.4C138.34 16.64 138.25 16.86 138.07 17.04C137.89 17.22 137.67 17.32 137.43 17.32H123.36V27.64H140.4C140.64 27.64 140.85 27.73 141.04 27.92C141.22 28.1 141.31 28.32 141.31 28.56" fill="white"/>
<path d="M168.41 28.55C168.41 28.79 168.32 29.01 168.13 29.19C167.95 29.37 167.73 29.47 167.49 29.47C167.25 29.47 167.07 29.43 166.94 29.33C166.82 29.24 166.7 29.12 166.58 28.96L145.06 4.06V28.55C145.06 28.79 144.97 29.01 144.79 29.19C144.61 29.37 144.39 29.47 144.15 29.47C143.91 29.47 143.69 29.38 143.51 29.19C143.33 29.01 143.24 28.8 143.24 28.55V1.5C143.24 1.38 143.23 1.27 143.19 1.16C143.16 1.05 143.15 0.959984 143.17 0.889984C143.18 0.809984 143.25 0.749991 143.38 0.709991C143.5 0.659991 143.73 0.639984 144.07 0.639984C144.25 0.639984 144.41 0.709976 144.55 0.849976C144.69 0.989976 144.86 1.16 145.07 1.38C145.35 1.65 145.72 2.04998 146.19 2.56998C146.66 3.08998 147.36 3.86998 148.27 4.91998C149.18 5.96998 150.43 7.41998 152.02 9.25998C153.6 11.1 155.58 13.42 157.96 16.2C160.34 18.99 163.22 22.36 166.6 26.32V1.50998C166.6 1.38998 166.58 1.27998 166.53 1.16998C166.49 1.05998 166.47 0.969994 166.49 0.899994C166.5 0.819994 166.58 0.760001 166.72 0.720001C166.86 0.670001 167.09 0.649994 167.43 0.649994C167.92 0.649994 168.2 0.739994 168.3 0.899994C168.39 1.06999 168.44 1.26998 168.44 1.50998V28.56L168.41 28.55Z" fill="white"/>
<path d="M182.43 0.630005C182.61 0.630005 182.8 0.669989 183 0.769989C183.2 0.859989 183.34 1.00998 183.43 1.22998L193.98 28.23C194.07 28.47 194.06 28.71 193.96 28.94C193.85 29.17 193.68 29.33 193.43 29.42C193.18 29.51 192.95 29.5 192.72 29.4C192.49 29.29 192.33 29.12 192.24 28.87L189.41 21.7H175.7L172.91 28.87C172.82 29.11 172.66 29.29 172.43 29.4C172.2 29.51 171.96 29.51 171.72 29.42C171.48 29.33 171.3 29.17 171.19 28.94C171.08 28.71 171.08 28.48 171.17 28.23L181.59 1.54999C181.62 1.42999 181.62 1.31999 181.59 1.20999C181.56 1.09999 181.56 1 181.59 0.910004C181.62 0.820004 181.69 0.749982 181.79 0.699982C181.9 0.649982 182.1 0.630005 182.41 0.630005M176.43 19.86H188.72L182.55 4.19L176.43 19.86Z" fill="white"/>
<path d="M221.82 28.55C221.82 28.79 221.73 29.01 221.54 29.19C221.36 29.37 221.14 29.47 220.9 29.47C220.66 29.47 220.48 29.43 220.35 29.33C220.23 29.24 220.11 29.12 219.99 28.96L198.47 4.06V28.55C198.47 28.79 198.38 29.01 198.2 29.19C198.02 29.37 197.8 29.47 197.56 29.47C197.32 29.47 197.1 29.38 196.92 29.19C196.74 29.01 196.65 28.8 196.65 28.55V1.5C196.65 1.38 196.64 1.27 196.6 1.16C196.57 1.05 196.56 0.959984 196.58 0.889984C196.59 0.809984 196.66 0.749991 196.79 0.709991C196.91 0.659991 197.14 0.639984 197.48 0.639984C197.66 0.639984 197.82 0.709976 197.96 0.849976C198.1 0.989976 198.27 1.16 198.48 1.38C198.76 1.65 199.13 2.04998 199.6 2.56998C200.07 3.08998 200.77 3.86998 201.68 4.91998C202.59 5.96998 203.84 7.41998 205.43 9.25998C207.01 11.1 208.99 13.42 211.37 16.2C213.75 18.99 216.63 22.36 220.01 26.32V1.50998C220.01 1.38998 219.99 1.27998 219.94 1.16998C219.9 1.05998 219.88 0.969994 219.9 0.899994C219.91 0.819994 219.99 0.760001 220.13 0.720001C220.27 0.670001 220.5 0.649994 220.84 0.649994C221.33 0.649994 221.61 0.739994 221.71 0.899994C221.8 1.06999 221.85 1.26998 221.85 1.50998V28.56L221.82 28.55Z" fill="white"/>
<path d="M246.58 1.54999C246.58 1.79999 246.49 2.01 246.3 2.19C246.12 2.37 245.9 2.47 245.66 2.47H236.2V28.56C236.2 28.8 236.11 29.02 235.93 29.2C235.75 29.38 235.53 29.48 235.29 29.48C235.05 29.48 234.83 29.39 234.65 29.2C234.47 29.02 234.37 28.81 234.37 28.56V2.47H224.91C224.67 2.47 224.45 2.38 224.27 2.19C224.09 2.01 224 1.79999 224 1.54999C224 1.29999 224.09 1.09 224.27 0.910004C224.45 0.730004 224.67 0.630005 224.91 0.630005H245.65C245.89 0.630005 246.11 0.720004 246.29 0.910004C246.47 1.09 246.57 1.30999 246.57 1.54999" fill="white"/>
<path d="M48.6004 65.08C48.3604 65.08 48.1404 64.99 47.9604 64.81C47.7804 64.63 47.6903 64.41 47.6903 64.17V37.17C47.6903 37.05 47.6804 36.94 47.6404 36.83C47.6104 36.72 47.6104 36.62 47.6404 36.53C47.6704 36.44 47.7503 36.37 47.8703 36.32C47.9903 36.27 48.2004 36.25 48.5104 36.25H55.8603C57.8403 36.25 59.7104 36.63 61.4604 37.39C63.2104 38.15 64.7403 39.19 66.0503 40.5C67.3603 41.81 68.3904 43.34 69.1604 45.09C69.9204 46.84 70.3003 48.71 70.3003 50.69C70.3003 52.67 69.9204 54.54 69.1604 56.29C68.4004 58.04 67.3603 59.57 66.0503 60.88C64.7403 62.19 63.2104 63.22 61.4604 63.96C59.7104 64.71 57.8403 65.08 55.8603 65.08H48.6004ZM68.4704 50.69C68.4704 48.95 68.1404 47.33 67.4604 45.8C66.7904 44.28 65.8803 42.94 64.7403 41.8C63.6003 40.66 62.2603 39.75 60.7403 39.08C59.2203 38.41 57.5904 38.07 55.8504 38.07H49.5003V63.24H55.8504C57.5804 63.24 59.2203 62.91 60.7403 62.26C62.2603 61.6 63.5903 60.71 64.7403 59.56C65.8803 58.42 66.7904 57.08 67.4604 55.56C68.1304 54.04 68.4704 52.41 68.4704 50.67" fill="white"/>
<path d="M81.7204 36.25C81.9004 36.25 82.0904 36.29 82.2904 36.39C82.4904 36.48 82.6304 36.63 82.7204 36.85L93.2704 63.85C93.3604 64.09 93.3504 64.33 93.2504 64.56C93.1404 64.79 92.9704 64.95 92.7204 65.04C92.4704 65.13 92.2404 65.12 92.0104 65.02C91.7804 64.91 91.6204 64.74 91.5304 64.5L88.7004 57.33H74.9904L72.2004 64.5C72.1104 64.74 71.9504 64.92 71.7204 65.02C71.4904 65.13 71.2504 65.13 71.0104 65.04C70.7704 64.95 70.5904 64.79 70.4804 64.56C70.3704 64.33 70.3704 64.1 70.4604 63.85L80.8804 37.17C80.9104 37.05 80.9104 36.94 80.8804 36.83C80.8504 36.72 80.8504 36.62 80.8804 36.53C80.9104 36.44 80.9804 36.37 81.0804 36.32C81.1904 36.27 81.3904 36.25 81.7004 36.25M75.7204 55.48H88.0104L81.8404 39.81L75.7204 55.48Z" fill="white"/>
<path d="M121.1 64.17C121.1 64.41 121.01 64.63 120.82 64.81C120.64 64.99 120.42 65.09 120.18 65.09C119.94 65.09 119.76 65.05 119.63 64.95C119.51 64.86 119.39 64.74 119.27 64.58L97.7504 39.68V64.17C97.7504 64.41 97.6604 64.63 97.4804 64.81C97.3004 64.99 97.0804 65.09 96.8404 65.09C96.6004 65.09 96.3804 65 96.2004 64.81C96.0204 64.63 95.9304 64.42 95.9304 64.17V37.12C95.9304 37 95.9204 36.89 95.8804 36.78C95.8504 36.67 95.8404 36.58 95.8604 36.51C95.8704 36.43 95.9404 36.37 96.0704 36.33C96.1904 36.28 96.4204 36.26 96.7504 36.26C96.9304 36.26 97.0904 36.33 97.2304 36.47C97.3704 36.61 97.5404 36.78 97.7504 37C98.0304 37.27 98.4004 37.67 98.8704 38.19C99.3404 38.71 100.04 39.49 100.95 40.54C101.86 41.59 103.11 43.04 104.7 44.88C106.28 46.72 108.26 49.04 110.64 51.82C113.02 54.61 115.9 57.98 119.28 61.94V37.13C119.28 37.01 119.26 36.9 119.21 36.79C119.17 36.68 119.15 36.59 119.17 36.52C119.18 36.44 119.26 36.38 119.4 36.34C119.54 36.29 119.77 36.27 120.11 36.27C120.6 36.27 120.88 36.36 120.98 36.52C121.07 36.69 121.12 36.89 121.12 37.14V64.19L121.1 64.17Z" fill="white"/>
<path d="M139.97 42.1C139.05 40.76 138.09 39.78 137.07 39.15C136.05 38.53 134.76 38.2 133.21 38.17C132.42 38.17 131.63 38.29 130.86 38.53C130.08 38.78 129.39 39.12 128.78 39.58C128.17 40.04 127.67 40.59 127.27 41.25C126.87 41.91 126.68 42.61 126.68 43.37C126.68 44.19 126.9 44.9 127.34 45.49C127.78 46.08 128.33 46.61 128.99 47.07C129.64 47.53 130.35 47.91 131.11 48.23C131.87 48.55 132.59 48.82 133.26 49.03C134.29 49.4 135.34 49.81 136.41 50.29C137.47 50.76 138.46 51.33 139.36 51.98C140.26 52.64 140.99 53.4 141.56 54.29C142.12 55.17 142.42 56.18 142.45 57.3C142.48 58.4 142.26 59.42 141.79 60.36C141.32 61.31 140.66 62.13 139.8 62.83C138.95 63.53 137.94 64.08 136.78 64.48C135.62 64.88 134.36 65.07 132.99 65.07C131.89 65.07 130.87 64.94 129.93 64.68C128.99 64.42 128.13 64.06 127.35 63.6C126.57 63.14 125.92 62.62 125.38 62.02C124.85 61.43 124.44 60.81 124.17 60.17C124.02 59.84 123.93 59.55 123.92 59.3C123.9 59.06 124.02 58.86 124.26 58.71C124.48 58.56 124.71 58.51 124.97 58.57C125.23 58.63 125.4 58.78 125.5 59.03C125.71 59.58 126.04 60.1 126.48 60.6C126.92 61.1 127.46 61.55 128.1 61.95C128.74 62.35 129.47 62.67 130.29 62.93C131.12 63.19 132.01 63.32 132.99 63.32C133.97 63.32 134.87 63.18 135.78 62.91C136.69 62.64 137.51 62.24 138.25 61.72C138.98 61.2 139.57 60.56 140.01 59.8C140.45 59.04 140.66 58.2 140.63 57.29C140.6 56.47 140.35 55.71 139.88 55.03C139.41 54.35 138.81 53.74 138.1 53.2C137.39 52.67 136.6 52.2 135.75 51.8C134.9 51.41 134.07 51.09 133.28 50.84C132.12 50.47 131.04 50.07 130.04 49.63C129.03 49.19 128.14 48.68 127.37 48.1C126.59 47.52 125.98 46.84 125.54 46.07C125.1 45.29 124.88 44.39 124.88 43.35C124.88 42.31 125.12 41.36 125.61 40.49C126.1 39.62 126.73 38.89 127.51 38.27C128.29 37.66 129.18 37.18 130.18 36.83C131.19 36.48 132.2 36.31 133.24 36.31C134.28 36.31 135.26 36.45 136.1 36.72C136.93 37 137.69 37.35 138.36 37.79C139.03 38.23 139.62 38.74 140.14 39.32C140.66 39.9 141.11 40.51 141.51 41.15C141.66 41.36 141.7 41.58 141.62 41.79C141.54 42 141.4 42.19 141.19 42.34C140.98 42.49 140.76 42.54 140.55 42.48C140.34 42.42 140.15 42.28 140 42.07" fill="white"/>
<path d="M155.73 37.21C155.73 37.09 155.72 36.97 155.68 36.87C155.65 36.76 155.65 36.66 155.68 36.57C155.71 36.48 155.79 36.41 155.91 36.36C156.03 36.31 156.24 36.29 156.55 36.29C156.88 36.29 157.14 36.38 157.3 36.57C157.47 36.75 157.55 36.97 157.55 37.21V54.02C157.55 55.3 157.79 56.5 158.28 57.63C158.77 58.76 159.43 59.74 160.27 60.58C161.11 61.42 162.09 62.07 163.22 62.54C164.35 63.01 165.55 63.25 166.83 63.25C168.11 63.25 169.31 63.02 170.44 62.54C171.57 62.07 172.55 61.41 173.39 60.58C174.23 59.74 174.9 58.76 175.4 57.63C175.91 56.51 176.16 55.3 176.16 54.02V37.21C176.16 37.09 176.15 36.97 176.11 36.87C176.08 36.76 176.08 36.66 176.11 36.57C176.14 36.48 176.21 36.41 176.34 36.36C176.46 36.31 176.67 36.29 176.98 36.29C177.32 36.29 177.57 36.38 177.74 36.57C177.91 36.75 177.99 36.97 177.99 37.21V53.98C177.99 55.53 177.7 56.98 177.12 58.32C176.54 59.66 175.75 60.83 174.74 61.84C173.73 62.85 172.56 63.64 171.2 64.22C169.84 64.8 168.39 65.09 166.84 65.09C165.29 65.09 163.84 64.8 162.5 64.22C161.16 63.64 159.99 62.85 158.98 61.84C157.97 60.83 157.18 59.66 156.6 58.32C156.02 56.98 155.73 55.53 155.73 53.98V37.21Z" fill="white"/>
<path d="M206.81 64.17C206.81 64.41 206.72 64.63 206.53 64.81C206.35 64.99 206.13 65.09 205.89 65.09C205.65 65.09 205.47 65.05 205.34 64.95C205.22 64.86 205.1 64.74 204.98 64.58L183.46 39.68V64.17C183.46 64.41 183.37 64.63 183.19 64.81C183.01 64.99 182.79 65.09 182.55 65.09C182.31 65.09 182.09 65 181.91 64.81C181.73 64.63 181.64 64.42 181.64 64.17V37.12C181.64 37 181.63 36.89 181.59 36.78C181.56 36.67 181.55 36.58 181.57 36.51C181.58 36.43 181.65 36.37 181.78 36.33C181.9 36.28 182.13 36.26 182.46 36.26C182.64 36.26 182.8 36.33 182.94 36.47C183.08 36.61 183.25 36.78 183.46 37C183.74 37.27 184.11 37.67 184.58 38.19C185.05 38.71 185.75 39.49 186.66 40.54C187.57 41.59 188.82 43.04 190.41 44.88C191.99 46.72 193.97 49.04 196.35 51.82C198.73 54.61 201.61 57.98 204.99 61.94V37.13C204.99 37.01 204.97 36.9 204.92 36.79C204.88 36.68 204.86 36.59 204.88 36.52C204.89 36.44 204.97 36.38 205.11 36.34C205.25 36.29 205.48 36.27 205.82 36.27C206.31 36.27 206.59 36.36 206.69 36.52C206.78 36.69 206.83 36.89 206.83 37.14V64.19L206.81 64.17Z" fill="white"/>
<path d="M36.9704 116.62C36.9704 116.97 36.8404 117.28 36.5704 117.54C36.3104 117.8 36.0004 117.94 35.6404 117.94C35.2804 117.94 35.0304 117.87 34.8504 117.74C34.6704 117.61 34.5004 117.43 34.3204 117.21L3.17035 81.17V116.61C3.17035 116.96 3.03038 117.27 2.77038 117.53C2.50038 117.79 2.20039 117.93 1.84039 117.93C1.48039 117.93 1.1804 117.8 0.910399 117.53C0.650399 117.27 0.510374 116.96 0.510374 116.61V77.46C0.510374 77.28 0.490367 77.12 0.440367 76.96C0.400367 76.81 0.390399 76.68 0.410399 76.56C0.430399 76.45 0.530387 76.36 0.710387 76.3C0.890387 76.23 1.21038 76.2 1.70038 76.2C1.96038 76.2 2.19039 76.3 2.40039 76.5C2.60039 76.7 2.8504 76.95 3.1604 77.26C3.5604 77.66 4.10039 78.23 4.78039 78.98C5.46039 79.73 6.4704 80.87 7.7904 82.39C9.1104 83.91 10.9204 86 13.2104 88.67C15.5004 91.34 18.3604 94.69 21.8004 98.72C25.2404 102.76 29.4104 107.64 34.3004 113.37V77.46C34.3004 77.28 34.2604 77.12 34.2004 76.96C34.1304 76.81 34.1104 76.68 34.1304 76.56C34.1504 76.45 34.2604 76.36 34.4604 76.3C34.6604 76.23 35.0003 76.2 35.4803 76.2C36.1903 76.2 36.6004 76.32 36.7404 76.56C36.8704 76.8 36.9404 77.1 36.9404 77.45V116.6L36.9704 116.62Z" fill="#B3E2A6"/>
<path d="M41.4004 97.11C41.4004 94.25 41.9404 91.54 43.0204 89.01C44.1004 86.47 45.5904 84.27 47.4904 82.4C49.3804 80.53 51.6004 79.04 54.1304 77.94C56.6704 76.84 59.3703 76.29 62.2303 76.29C65.0903 76.29 67.8004 76.84 70.3304 77.94C72.8704 79.04 75.0704 80.53 76.9504 82.4C78.8204 84.28 80.3104 86.48 81.4104 89.01C82.5104 91.54 83.0704 94.25 83.0704 97.11C83.0704 99.97 82.5204 102.68 81.4104 105.21C80.3104 107.75 78.8204 109.96 76.9504 111.86C75.0704 113.76 72.8704 115.24 70.3304 116.32C67.8004 117.4 65.0903 117.94 62.2303 117.94C59.3703 117.94 56.6704 117.4 54.1304 116.32C51.6004 115.24 49.3804 113.75 47.4904 111.86C45.5904 109.97 44.1004 107.75 43.0204 105.21C41.9404 102.68 41.4004 99.98 41.4004 97.11ZM44.0504 97.11C44.0504 99.62 44.5204 101.98 45.4704 104.18C46.4204 106.39 47.7104 108.31 49.3704 109.97C51.0204 111.62 52.9504 112.92 55.1604 113.87C57.3604 114.82 59.7203 115.29 62.2303 115.29C64.7403 115.29 67.1004 114.82 69.3104 113.87C71.5104 112.92 73.4404 111.62 75.1004 109.97C76.7504 108.32 78.0504 106.39 79.0004 104.18C79.9504 101.98 80.4203 99.62 80.4203 97.11C80.4203 94.6 79.9504 92.24 79.0004 90.03C78.0504 87.83 76.7504 85.9 75.1004 84.24C73.4504 82.59 71.5104 81.29 69.3104 80.34C67.1104 79.39 64.7403 78.92 62.2303 78.92C59.7203 78.92 57.3604 79.39 55.1604 80.34C52.9504 81.29 51.0304 82.59 49.3704 84.24C47.7104 85.89 46.4104 87.82 45.4704 90.03C44.5204 92.24 44.0504 94.59 44.0504 97.11Z" fill="#B3E2A6"/>
<path d="M87.6204 77.6C87.6204 77.42 87.6004 77.26 87.5504 77.1C87.5004 76.95 87.5004 76.8 87.5504 76.67C87.5904 76.54 87.7104 76.44 87.8804 76.37C88.0604 76.31 88.3604 76.27 88.8104 76.27C89.2904 76.27 89.6604 76.4 89.9004 76.67C90.1404 76.93 90.2704 77.24 90.2704 77.6V101.93C90.2704 103.78 90.6204 105.53 91.3304 107.15C92.0304 108.78 92.9904 110.2 94.2104 111.42C95.4204 112.63 96.8404 113.58 98.4704 114.26C100.1 114.94 101.84 115.29 103.7 115.29C105.56 115.29 107.29 114.95 108.92 114.26C110.55 113.58 111.98 112.63 113.18 111.42C114.39 110.21 115.36 108.78 116.09 107.15C116.82 105.52 117.18 103.78 117.18 101.93V77.6C117.18 77.42 117.16 77.26 117.11 77.1C117.06 76.94 117.07 76.8 117.11 76.67C117.15 76.54 117.26 76.44 117.44 76.37C117.61 76.31 117.92 76.27 118.36 76.27C118.85 76.27 119.21 76.4 119.45 76.67C119.69 76.93 119.81 77.24 119.81 77.6V101.87C119.81 104.12 119.39 106.21 118.56 108.15C117.72 110.09 116.58 111.79 115.12 113.24C113.67 114.7 111.96 115.84 110 116.68C108.04 117.52 105.93 117.94 103.69 117.94C101.45 117.94 99.3404 117.52 97.4104 116.68C95.4704 115.84 93.7704 114.7 92.3204 113.24C90.8604 111.78 89.7204 110.09 88.8804 108.15C88.0404 106.21 87.6204 104.12 87.6204 101.87V77.6Z" fill="#B3E2A6"/>
<path d="M153.81 76.21C154.16 76.34 154.42 76.58 154.57 76.91C154.73 77.24 154.74 77.58 154.61 77.93L140.53 116.75C140.22 117.54 139.8 117.94 139.27 117.94C138.83 117.94 138.51 117.81 138.31 117.54C138.11 117.27 137.97 117.01 137.88 116.75L123.73 78C123.55 77.6 123.56 77.25 123.76 76.94C123.96 76.63 124.19 76.43 124.46 76.35C124.86 76.17 125.22 76.16 125.55 76.32C125.88 76.47 126.11 76.73 126.25 77.08L139.21 112.92L152.1 77.01C152.23 76.66 152.48 76.42 152.86 76.28C153.23 76.15 153.56 76.13 153.82 76.21" fill="#B3E2A6"/>
<path d="M187.14 116.62C187.14 116.97 187.01 117.28 186.75 117.54C186.48 117.8 186.18 117.94 185.82 117.94H159.7C159.35 117.94 159.06 117.81 158.84 117.54C158.62 117.28 158.51 116.97 158.51 116.62V78C158.51 77.83 158.48 77.64 158.41 77.44C158.34 77.24 158.31 77.05 158.31 76.88C158.31 76.71 158.37 76.55 158.48 76.42C158.59 76.29 158.82 76.22 159.17 76.22H185.82C186.17 76.22 186.48 76.35 186.75 76.62C187.01 76.88 187.14 77.19 187.14 77.54C187.14 77.89 187.01 78.2 186.75 78.47C186.48 78.74 186.18 78.87 185.82 78.87H161.15V97.72H181.52C181.87 97.72 182.18 97.85 182.45 98.12C182.71 98.39 182.85 98.69 182.85 99.04C182.85 99.39 182.71 99.7 182.45 99.97C182.18 100.23 181.88 100.37 181.52 100.37H161.15V115.31H185.82C186.17 115.31 186.48 115.44 186.75 115.71C187.01 115.97 187.14 116.28 187.14 116.64" fill="#B3E2A6"/>
<path d="M207.04 76.21C207.31 76.21 207.58 76.28 207.87 76.41C208.15 76.54 208.36 76.76 208.49 77.07L223.77 116.15C223.9 116.5 223.89 116.85 223.74 117.18C223.58 117.51 223.33 117.74 222.98 117.88C222.62 118.01 222.28 118 221.95 117.85C221.62 117.69 221.39 117.44 221.25 117.09L217.15 106.7H197.31L193.27 117.09C193.14 117.44 192.91 117.69 192.58 117.85C192.25 118 191.91 118.01 191.55 117.88C191.2 117.75 190.95 117.52 190.79 117.18C190.63 116.85 190.62 116.51 190.75 116.15L205.83 77.53C205.87 77.36 205.87 77.19 205.83 77.04C205.78 76.89 205.78 76.74 205.83 76.61C205.87 76.48 205.97 76.38 206.13 76.31C206.29 76.24 206.58 76.21 207.02 76.21M198.36 104.05H216.15L207.22 81.37L198.36 104.05Z" fill="#B3E2A6"/>
<path d="M222.98 77.6C222.98 77.42 222.96 77.26 222.91 77.1C222.86 76.95 222.86 76.8 222.91 76.67C222.95 76.54 223.07 76.44 223.24 76.37C223.42 76.31 223.72 76.27 224.17 76.27C224.65 76.27 225.02 76.4 225.26 76.67C225.5 76.93 225.63 77.24 225.63 77.6V101.93C225.63 103.78 225.98 105.53 226.69 107.15C227.39 108.78 228.35 110.2 229.57 111.42C230.78 112.63 232.2 113.58 233.83 114.26C235.46 114.94 237.2 115.29 239.06 115.29C240.92 115.29 242.65 114.95 244.28 114.26C245.91 113.58 247.34 112.63 248.54 111.42C249.75 110.21 250.72 108.78 251.45 107.15C252.18 105.52 252.54 103.78 252.54 101.93V77.6C252.54 77.42 252.52 77.26 252.47 77.1C252.42 76.94 252.43 76.8 252.47 76.67C252.51 76.54 252.62 76.44 252.8 76.37C252.97 76.31 253.28 76.27 253.72 76.27C254.21 76.27 254.57 76.4 254.81 76.67C255.05 76.93 255.17 77.24 255.17 77.6V101.87C255.17 104.12 254.75 106.21 253.92 108.15C253.08 110.09 251.94 111.79 250.48 113.24C249.03 114.7 247.32 115.84 245.36 116.68C243.4 117.52 241.29 117.94 239.05 117.94C236.81 117.94 234.7 117.52 232.77 116.68C230.83 115.84 229.13 114.7 227.68 113.24C226.22 111.78 225.08 110.09 224.24 108.15C223.4 106.21 222.98 104.12 222.98 101.87V77.6Z" fill="#B3E2A6"/>
<path d="M50.4704 150.58C50.4704 150.94 50.3304 151.24 50.0704 151.51C49.8004 151.77 49.5004 151.91 49.1404 151.91H29.6304V168.18C29.6304 168.53 29.5004 168.84 29.2404 169.1C28.9704 169.36 28.6704 169.5 28.3104 169.5C27.9504 169.5 27.6404 169.37 27.3804 169.1C27.1104 168.83 26.9803 168.53 26.9803 168.18V129.56C26.9803 129.39 26.9504 129.2 26.8804 129C26.8104 128.8 26.7804 128.61 26.7804 128.44C26.7804 128.27 26.8404 128.11 26.9504 127.98C27.0604 127.85 27.2904 127.78 27.6404 127.78H53.5004C53.8504 127.78 54.1604 127.91 54.4304 128.18C54.6904 128.44 54.8204 128.75 54.8204 129.1C54.8204 129.45 54.6904 129.76 54.4304 130.03C54.1604 130.29 53.8604 130.43 53.5004 130.43H29.6204V149.28H49.1304C49.4804 149.28 49.7904 149.41 50.0604 149.68C50.3204 149.94 50.4604 150.25 50.4604 150.6" fill="white"/>
<path d="M53.3704 148.67C53.3704 145.81 53.9104 143.1 54.9904 140.57C56.0704 138.03 57.5604 135.83 59.4604 133.96C61.3504 132.09 63.5704 130.6 66.1004 129.5C68.6404 128.4 71.3404 127.85 74.2004 127.85C77.0604 127.85 79.7704 128.4 82.3004 129.5C84.8404 130.6 87.0403 132.09 88.9203 133.96C90.7903 135.84 92.2804 138.04 93.3804 140.57C94.4804 143.11 95.0404 145.81 95.0404 148.67C95.0404 151.53 94.4904 154.24 93.3804 156.77C92.2804 159.31 90.7903 161.52 88.9203 163.42C87.0403 165.32 84.8404 166.8 82.3004 167.88C79.7704 168.96 77.0604 169.5 74.2004 169.5C71.3404 169.5 68.6404 168.96 66.1004 167.88C63.5704 166.8 61.3504 165.31 59.4604 163.42C57.5604 161.53 56.0704 159.31 54.9904 156.77C53.9104 154.24 53.3704 151.54 53.3704 148.67ZM56.0204 148.67C56.0204 151.18 56.4904 153.54 57.4404 155.74C58.3904 157.95 59.6804 159.87 61.3404 161.53C62.9904 163.18 64.9204 164.48 67.1304 165.43C69.3304 166.38 71.6904 166.85 74.2004 166.85C76.7104 166.85 79.0704 166.38 81.2804 165.43C83.4804 164.48 85.4104 163.18 87.0704 161.53C88.7204 159.88 90.0204 157.95 90.9704 155.74C91.9204 153.54 92.3904 151.18 92.3904 148.67C92.3904 146.16 91.9204 143.8 90.9704 141.59C90.0204 139.39 88.7204 137.46 87.0704 135.8C85.4204 134.15 83.4804 132.85 81.2804 131.9C79.0804 130.95 76.7104 130.48 74.2004 130.48C71.6904 130.48 69.3304 130.95 67.1304 131.9C64.9204 132.85 63.0004 134.15 61.3404 135.8C59.6804 137.45 58.3804 139.38 57.4404 141.59C56.4904 143.8 56.0204 146.15 56.0204 148.67Z" fill="white"/>
<path d="M126.31 143.9C126.31 147.3 125.42 150.21 123.63 152.63C121.85 155.06 119.5 156.84 116.59 157.99L126.05 167.18C126.27 167.4 126.4 167.71 126.45 168.1C126.49 168.5 126.38 168.81 126.12 169.03C125.85 169.25 125.55 169.37 125.19 169.39C124.84 169.41 124.51 169.29 124.2 169.03L113.62 158.91C112.3 159.17 110.93 159.31 109.52 159.31H102.25V168.17C102.25 168.52 102.11 168.83 101.85 169.09C101.58 169.36 101.28 169.49 100.92 169.49C100.56 169.49 100.26 169.36 99.9903 169.09C99.7203 168.83 99.5904 168.52 99.5904 168.17V129.09C99.5904 128.92 99.5704 128.75 99.5204 128.6C99.4804 128.45 99.4804 128.3 99.5204 128.17C99.5604 128.04 99.6804 127.94 99.8504 127.87C100.03 127.8 100.33 127.77 100.78 127.77H109.51C111.8 127.77 113.98 128.18 116.03 128.99C118.08 129.81 119.87 130.93 121.39 132.36C122.91 133.79 124.11 135.5 124.99 137.48C125.87 139.46 126.31 141.6 126.31 143.89M123.67 143.89C123.67 141.95 123.29 140.15 122.55 138.5C121.8 136.85 120.78 135.42 119.51 134.23C118.23 133.04 116.73 132.11 115.01 131.42C113.29 130.74 111.46 130.4 109.52 130.4H102.25V156.65H109.52C111.46 156.65 113.29 156.35 115.01 155.76C116.73 155.17 118.23 154.32 119.51 153.21C120.78 152.11 121.8 150.76 122.55 149.18C123.29 147.59 123.67 145.83 123.67 143.89Z" fill="white"/>
<path d="M133.39 132.73V168.18C133.39 168.53 133.26 168.84 132.99 169.1C132.73 169.36 132.42 169.5 132.06 169.5C131.7 169.5 131.4 169.37 131.13 169.1C130.87 168.84 130.73 168.53 130.73 168.18V129.03L130.66 128.3C130.66 128.12 130.7 127.99 130.76 127.9C130.83 127.81 131.21 127.77 131.92 127.77H132.25C132.73 127.77 133.01 127.82 133.08 127.9C133.15 127.99 133.25 128.14 133.38 128.36L150.04 149.98L166.44 128.56C166.62 128.29 166.75 128.1 166.84 127.97C166.93 127.84 167.23 127.77 167.76 127.77C168.42 127.77 168.83 127.89 168.98 128.13C169.14 128.37 169.21 128.67 169.21 129.02V168.17C169.21 168.52 169.08 168.83 168.82 169.09C168.55 169.35 168.25 169.49 167.89 169.49C167.53 169.49 167.22 169.36 166.96 169.09C166.69 168.83 166.56 168.52 166.56 168.17V132.86C164.13 135.99 161.62 139.17 159.02 142.41C156.42 145.65 153.97 148.86 151.68 152.03C151.55 152.21 151.34 152.41 151.05 152.63C150.76 152.85 150.42 152.96 150.03 152.96C149.59 152.96 149.24 152.86 148.97 152.66C148.71 152.46 148.49 152.25 148.31 152.03L133.37 132.72L133.39 132.73Z" fill="white"/>
<path d="M189.13 127.77C189.4 127.77 189.67 127.84 189.96 127.97C190.24 128.1 190.45 128.32 190.58 128.63L205.86 167.71C205.99 168.06 205.98 168.41 205.83 168.73C205.67 169.06 205.42 169.29 205.07 169.43C204.71 169.56 204.37 169.55 204.04 169.4C203.71 169.24 203.48 168.99 203.34 168.64L199.24 158.25H179.4L175.36 168.64C175.23 168.99 175 169.24 174.67 169.4C174.34 169.55 174 169.56 173.64 169.43C173.29 169.3 173.04 169.07 172.88 168.73C172.72 168.4 172.71 168.06 172.84 167.71L187.92 129.09C187.96 128.92 187.96 128.75 187.92 128.6C187.87 128.45 187.87 128.3 187.92 128.17C187.96 128.04 188.06 127.94 188.22 127.87C188.38 127.8 188.67 127.77 189.11 127.77M180.45 155.61H198.24L189.31 132.93L180.45 155.61Z" fill="white"/>
<path d="M228.81 129.09C228.81 129.45 228.68 129.75 228.41 130.02C228.14 130.29 227.84 130.42 227.48 130.42H213.79V168.18C213.79 168.53 213.66 168.84 213.4 169.1C213.13 169.36 212.83 169.5 212.47 169.5C212.11 169.5 211.8 169.37 211.54 169.1C211.27 168.84 211.14 168.53 211.14 168.18V130.42H197.45C197.1 130.42 196.79 130.29 196.52 130.02C196.26 129.76 196.13 129.45 196.13 129.09C196.13 128.73 196.26 128.43 196.52 128.17C196.79 127.91 197.09 127.77 197.45 127.77H227.47C227.82 127.77 228.13 127.9 228.4 128.17C228.67 128.43 228.8 128.74 228.8 129.09" fill="white"/>
</svg>
